<?xml version="1.0" encoding="utf-8"?>
<!-- Generator: Adobe Illustrator 15.1.0, SVG Export Plug-In . SVG Version: 6.00 Build 0)  -->
<!DOCTYPE svg PUBLIC "-//W3C//DTD SVG 1.1//EN" "http://www.w3.org/Graphics/SVG/1.1/DTD/svg11.dtd">
<svg version="1.1" xmlns="http://www.w3.org/2000/svg" xmlns:xlink="http://www.w3.org/1999/xlink" x="0px" y="0px"
	 width="283.46px" height="283.46px" viewBox="0 0 283.46 283.46" enable-background="new 0 0 283.46 283.46" xml:space="preserve">
<g id="Layer_1">
</g>
<g id="Layer_2">
	<rect fill="#FFADC5" width="283.46" height="283.46"/>
</g>
<g id="Layer_3">
	<ellipse fill="#9999CC" cx="102.541" cy="105.61" rx="41.423" ry="37.448"/>
	<ellipse fill="#FFADC5" cx="102.541" cy="106.143" rx="23.431" ry="23.627"/>
	<path fill="#9999CC" d="M195.638,178.771c0,3.576-2.421,6.475-5.407,6.475h-34.794c-2.985,0-5.406-2.898-5.406-6.475l0,0
		c0-3.575,2.421-6.473,5.406-6.473h34.794C193.217,172.299,195.638,175.196,195.638,178.771L195.638,178.771z"/>
</g>
<g id="Layer_4">
	<path fill="#9999CC" d="M204.423,95.778c0,4.125-3.344,7.47-7.469,7.47H157.5c-4.126,0-7.47-3.344-7.47-7.47l0,0
		c0-4.125,3.344-7.47,7.47-7.47h39.454C201.079,88.308,204.423,91.652,204.423,95.778L204.423,95.778z"/>
	<path fill="#9999CC" d="M204.423,117.28c0,4.125-3.344,7.47-7.469,7.47H157.5c-4.126,0-7.47-3.344-7.47-7.47l0,0
		c0-4.125,3.344-7.47,7.47-7.47h39.454C201.079,109.81,204.423,113.154,204.423,117.28L204.423,117.28z"/>
	<path fill="#9999CC" d="M204.423,198.863c0,3.535-2.902,6.4-6.484,6.4l0,0c-3.582,0-6.484-2.865-6.484-6.4V74.144
		c0-3.534,2.902-6.399,6.484-6.399l0,0c3.582,0,6.484,2.866,6.484,6.399V198.863z"/>
	<path fill="#9999CC" d="M229.948,198.863c0,3.535-2.904,6.4-6.486,6.4l0,0c-3.582,0-6.486-2.865-6.486-6.4V74.143
		c0-3.534,2.904-6.399,6.486-6.399l0,0c3.582,0,6.486,2.866,6.486,6.399V198.863z"/>
</g>
<g id="Layer_5">
	<path fill="#9999CC" d="M150.03,156.448c0,3.929-2.443,7.113-5.455,7.113H60.506c-3.012,0-5.455-3.185-5.455-7.113l0,0
		c0-3.928,2.442-7.112,5.455-7.112h84.069C147.587,149.336,150.03,152.521,150.03,156.448L150.03,156.448z"/>
	<path fill="#9999CC" d="M110.853,191.96c0,4.849-3.219,8.778-7.189,8.778l0,0c-3.971,0-7.189-3.93-7.189-8.778v-26.376
		c0-4.849,3.219-8.778,7.189-8.778l0,0c3.971,0,7.189,3.93,7.189,8.778V191.96z"/>
	<path fill="#9999CC" d="M69.696,223.873c0,2.818-3.185,5.103-7.113,5.103l0,0c-3.928,0-7.113-2.284-7.113-5.103v-37.22
		c0-2.818,3.185-5.103,7.113-5.103l0,0c3.929,0,7.113,2.284,7.113,5.103V223.873z"/>
	<path fill="#9999CC" d="M229.948,222.49c0,3.582-5.045,6.485-11.272,6.485H67.373c-6.227,0-11.275-2.903-11.275-6.485l0,0
		c0-3.582,5.048-6.485,11.275-6.485h151.303C224.903,216.005,229.948,218.908,229.948,222.49L229.948,222.49z"/>
</g>
</svg>
